# xmcd
#
# Track frame offsets: 
#        183
#        10683
#        20433
#        35658
#        59133
#        71308
#        88545
#        100695
#        115908
#        125895
#
# Disc length: 2003 seconds
#
# Revision: 11
# Processed by: cddbd v1.5.2PL0 Copyright (c) Steve Scherf et al.
# Submitted via: ExactAudioCopyFreeDBPlugin 1.0
#
DISCID=8207d10a
DTITLE=J.J. Cale - Shades {2013,RE,5OA,Mercury,5334366}
DYEAR=1980
DGENRE=Americana
TTITLE0=Carry On
TTITLE1=Deep Dark Dungeon
TTITLE2=Wish I Had Not Said That
TTITLE3=Pack My Jack
TTITLE4=If You Leave Her
TTITLE5=Mama Don't
TTITLE6=Runaround
TTITLE7=What Do You Expect
TTITLE8=Love Has Been Gone
TTITLE9=Cloudy Day
EXTD=YEAR: 1980 ID3G: 0
EXTT0=
EXTT1=
EXTT2=
EXTT3=
EXTT4=
EXTT5=
EXTT6=
EXTT7=
EXTT8=
EXTT9=
PLAYORDER=
